<?xml version="1.0" encoding="utf-8"?>
<!-- Generator: Adobe Illustrator 16.0.0, SVG Export Plug-In . SVG Version: 6.00 Build 0)  -->
<!DOCTYPE svg PUBLIC "-//W3C//DTD SVG 1.1//EN" "http://www.w3.org/Graphics/SVG/1.1/DTD/svg11.dtd" [
	<!ENTITY ns_extend "http://ns.adobe.com/Extensibility/1.0/">
	<!ENTITY ns_ai "http://ns.adobe.com/AdobeIllustrator/10.0/">
	<!ENTITY ns_graphs "http://ns.adobe.com/Graphs/1.0/">
	<!ENTITY ns_vars "http://ns.adobe.com/Variables/1.0/">
	<!ENTITY ns_imrep "http://ns.adobe.com/ImageReplacement/1.0/">
	<!ENTITY ns_sfw "http://ns.adobe.com/SaveForWeb/1.0/">
	<!ENTITY ns_custom "http://ns.adobe.com/GenericCustomNamespace/1.0/">
	<!ENTITY ns_adobe_xpath "http://ns.adobe.com/XPath/1.0/">
]>
<svg version="1.1" id="Layer_1" xmlns:x="&ns_extend;" xmlns:i="&ns_ai;" xmlns:graph="&ns_graphs;"
	 xmlns="http://www.w3.org/2000/svg" xmlns:xlink="http://www.w3.org/1999/xlink" x="0px" y="0px" width="156.333px"
	 height="49.333px" viewBox="0 0 156.333 49.333" enable-background="new 0 0 156.333 49.333" xml:space="preserve">
<metadata><?xpacket begin="﻿" id="W5M0MpCehiHzreSzNTczkc9d"?>
<x:xmpmeta xmlns:x="adobe:ns:meta/" x:xmptk="Adobe XMP Core 5.3-c011 66.145661, 2012/02/06-14:56:27        ">
   <rdf:RDF xmlns:rdf="http://www.w3.org/1999/02/22-rdf-syntax-ns#">
      <rdf:Description rdf:about=""
            xmlns:dc="http://purl.org/dc/elements/1.1/">
         <dc:format>image/svg+xml</dc:format>
         <dc:title>
            <rdf:Alt>
               <rdf:li xml:lang="x-default">Print</rdf:li>
            </rdf:Alt>
         </dc:title>
      </rdf:Description>
      <rdf:Description rdf:about=""
            xmlns:xmp="http://ns.adobe.com/xap/1.0/"
            xmlns:xmpGImg="http://ns.adobe.com/xap/1.0/g/img/">
         <xmp:MetadataDate>2017-04-27T09:52:24+07:00</xmp:MetadataDate>
         <xmp:ModifyDate>2017-04-27T09:52:24+07:00</xmp:ModifyDate>
         <xmp:CreateDate>2017-04-27T09:52:24+07:00</xmp:CreateDate>
         <xmp:CreatorTool>Adobe Illustrator CS6 (Windows)</xmp:CreatorTool>
         <xmp:Thumbnails>
            <rdf:Alt>
               <rdf:li rdf:parseType="Resource">
                  <xmpGImg:width>256</xmpGImg:width>
                  <xmpGImg:height>80</xmpGImg:height>
                  <xmpGImg:format>JPEG</xmpGImg:format>
                  <xmpGImg:image>/9j/4AAQSkZJRgABAgEBLAEsAAD/7QAsUGhvdG9zaG9wIDMuMAA4QklNA+0AAAAAABABLAAAAAEA&#xA;AQEsAAAAAQAB/+4ADkFkb2JlAGTAAAAAAf/bAIQABgQEBAUEBgUFBgkGBQYJCwgGBggLDAoKCwoK&#xA;DBAMDAwMDAwQDA4PEA8ODBMTFBQTExwbGxscHx8fHx8fHx8fHwEHBwcNDA0YEBAYGhURFRofHx8f&#xA;Hx8fHx8fHx8fHx8fHx8fHx8fHx8fHx8fHx8fHx8fHx8fHx8fHx8fHx8fHx8f/8AAEQgAUAEAAwER&#xA;AAIRAQMRAf/EAaIAAAAHAQEBAQEAAAAAAAAAAAQFAwIGAQAHCAkKCwEAAgIDAQEBAQEAAAAAAAAA&#xA;AQACAwQFBgcICQoLEAACAQMDAgQCBgcDBAIGAnMBAgMRBAAFIRIxQVEGE2EicYEUMpGhBxWxQiPB&#xA;UtHhMxZi8CRygvElQzRTkqKyY3PCNUQnk6OzNhdUZHTD0uIIJoMJChgZhJRFRqS0VtNVKBry4/PE&#xA;1OT0ZXWFlaW1xdXl9WZ2hpamtsbW5vY3R1dnd4eXp7fH1+f3OEhYaHiImKi4yNjo+Ck5SVlpeYmZ&#xA;qbnJ2en5KjpKWmp6ipqqusra6voRAAICAQIDBQUEBQYECAMDbQEAAhEDBCESMUEFURNhIgZxgZEy&#xA;obHwFMHR4SNCFVJicvEzJDRDghaSUyWiY7LCB3PSNeJEgxdUkwgJChgZJjZFGidkdFU38qOzwygp&#xA;0+PzhJSktMTU5PRldYWVpbXF1eX1RlZmdoaWprbG1ub2R1dnd4eXp7fH1+f3OEhYaHiImKi4yNjo&#xA;+DlJWWl5iZmpucnZ6fkqOkpaanqKmqq6ytrq+v/aAAwDAQACEQMRAD8A9U4q7FXYq7FXYq7FXYq7&#xA;FXYq7FXYq7FXYq7FXYq7FXYq7FXYq7FXYq7FXYq7FXYq7FXYq7FXYq7FXYq7FXYq7FXYq7FXYq7F&#xA;XYq7FXYq7FXYq7FXYq7FXYq7FXYq7FXYq7FXYq7FXYq7FXYq7FXYq7FXYq7FXYq7FXYq7FXYq7FX&#xA;Yq7FXYq7FXYq7FXYq7FXYq7FXYq7FXYq7FXYq7FXYq7FXYq7FXYq7FXYq7FXYq7FXYq7FXYq7FXY&#xA;q7FXYq7FXYq7FXYq7FXYq7FXYq7FXYq7FXYq7FXYq7FXYq7FXYq7FXYq7FWuS8gtRyIJA70HX9eK&#xA;22SACSaAbknFXYqtWaJnKK6s69VBBIpt0w0gSB2XYEuxV2KuxV2KuxV2KuxV2KuxV2KuxV2KuxV2&#xA;KuxV2KuxV2KuxV2KuxV2KuxV2KuxV2KuxV5x+Yc+o+X/ADTpHmiN5JbBf9GuYK1VQalgB0/eJuPd&#xA;cz9KBOBh1ed7VlPBnhnFmPIj8d4+0I38zPNa23luC101/VutcUJblNyYHA5MtP5uQUfP2yGkw3Oz&#xA;yi3dsa7hwiMN5ZOXuSXzNN5g0vRvLnk61unW/v1VLq6LGoDMFEQYb8FLU/1Rl2IRlKWQjYOHrJZc&#xA;WPFp4n1S5n9Hu/QFur/lN+htIfVdJ1Of9KWCGdmNEDemOT8OPxIaVpufDGGt45cMhsUZ+w/Bx+Jj&#xA;meOO/wDZ3fazbyHr9xrvlm1vrkAXI5RTsNgzRmnL/ZDf55ianGITIHJ3XZmqOfCJS+rkfgyDKHPd&#xA;irsVdirsVdirsVdirsVdirsVdirsVdirsVdirsVdirsVdirsVdirsVdirsVdiqV+ZdR1PT9IlutM&#xA;szf3iFAlsASWDMAx+HfYb5ZiiJSomg42syzx4zKEeKXch7vT38yeUza6lB9VuL23BkiINYZqcl67&#xA;/A2SjLw52N6a54vzGn4ZjhMh8j+xgP5e+SddPmFLvX4ZUg0ZPTsklHws4ZinAnqqElgR3pmbqdRH&#xA;hqP8ToeyuzsvjcWUGsfK/wBHkOaf+ctJ1O689eW7u3tZJbW2dTcTIpKIBID8RHTbKcEwMcgTu5/a&#xA;GCctVikATEcz8WXa7FJNomoRRKXlktpkRF3JZoyAAPc5i4zUh73a6mJOKQHPhP3Me/K7Tr/T/Kkd&#xA;tfW7204mlYxSqVahIoaHL9ZISnYcDsXFLHgAkKNll2YrtnYq7FXYq7FXYq7FXYq7FXYq7FXYq7FX&#xA;Yq7FXYq7FXYq7FXYq7FXYq7FXYq7FXYq7FXYq7FXYq7FXYq7FXYq7FXYq7FXYq7FXYq7FXYq7FXY&#xA;q7FXYq7FXYq7FXYq7FXYq7FXYq7FXYq7FXYq7FXYq7FXYq7FXYq7FXYq7FXYq7FXYq7FXYq7FXYq&#xA;7FXYq7FXYq7FXYq7FXYq7FXYq7FXYq7FXYq7FXYq7FXYq7FXYq7FXYq7FXYq7FXYq7FXYq7FXYq7&#xA;FXYq7FXYq7FXYq7FXYq7FXYq7FXYq7FXYq7FXYq7FXYq7FXYq7FXYq7FXYq7FX//2Q==</xmpGImg:image>
               </rdf:li>
            </rdf:Alt>
         </xmp:Thumbnails>
      </rdf:Description>
      <rdf:Description rdf:about=""
            xmlns:xmpMM="http://ns.adobe.com/xap/1.0/mm/"
            xmlns:stRef="http://ns.adobe.com/xap/1.0/sType/ResourceRef#"
            xmlns:stEvt="http://ns.adobe.com/xap/1.0/sType/ResourceEvent#">
         <xmpMM:InstanceID>xmp.iid:46416775F42AE71180B8ADD8D64E20AF</xmpMM:InstanceID>
         <xmpMM:DocumentID>xmp.did:46416775F42AE71180B8ADD8D64E20AF</xmpMM:DocumentID>
         <xmpMM:OriginalDocumentID>uuid:5D20892493BFDB11914A8590D31508C8</xmpMM:OriginalDocumentID>
         <xmpMM:RenditionClass>proof:pdf</xmpMM:RenditionClass>
         <xmpMM:DerivedFrom rdf:parseType="Resource">
            <stRef:instanceID>xmp.iid:45416775F42AE71180B8ADD8D64E20AF</stRef:instanceID>
            <stRef:documentID>xmp.did:45416775F42AE71180B8ADD8D64E20AF</stRef:documentID>
            <stRef:originalDocumentID>uuid:5D20892493BFDB11914A8590D31508C8</stRef:originalDocumentID>
            <stRef:renditionClass>proof:pdf</stRef:renditionClass>
         </xmpMM:DerivedFrom>
         <xmpMM:History>
            <rdf:Seq>
               <rdf:li rdf:parseType="Resource">
                  <stEvt:action>saved</stEvt:action>
                  <stEvt:instanceID>xmp.iid:44416775F42AE71180B8ADD8D64E20AF</stEvt:instanceID>
                  <stEvt:when>2017-04-27T09:51:48+07:00</stEvt:when>
                  <stEvt:softwareAgent>Adobe Illustrator CS6 (Windows)</stEvt:softwareAgent>
                  <stEvt:changed>/</stEvt:changed>
               </rdf:li>
               <rdf:li rdf:parseType="Resource">
                  <stEvt:action>saved</stEvt:action>
                  <stEvt:instanceID>xmp.iid:46416775F42AE71180B8ADD8D64E20AF</stEvt:instanceID>
                  <stEvt:when>2017-04-27T09:52:24+07:00</stEvt:when>
                  <stEvt:softwareAgent>Adobe Illustrator CS6 (Windows)</stEvt:softwareAgent>
                  <stEvt:changed>/</stEvt:changed>
               </rdf:li>
            </rdf:Seq>
         </xmpMM:History>
      </rdf:Description>
      <rdf:Description rdf:about=""
            xmlns:illustrator="http://ns.adobe.com/illustrator/1.0/">
         <illustrator:StartupProfile>Print</illustrator:StartupProfile>
      </rdf:Description>
      <rdf:Description rdf:about=""
            xmlns:xmpTPg="http://ns.adobe.com/xap/1.0/t/pg/"
            xmlns:stDim="http://ns.adobe.com/xap/1.0/sType/Dimensions#"
            xmlns:xmpG="http://ns.adobe.com/xap/1.0/g/">
         <xmpTPg:HasVisibleOverprint>False</xmpTPg:HasVisibleOverprint>
         <xmpTPg:HasVisibleTransparency>False</xmpTPg:HasVisibleTransparency>
         <xmpTPg:NPages>1</xmpTPg:NPages>
         <xmpTPg:MaxPageSize rdf:parseType="Resource">
            <stDim:w>156.332520</stDim:w>
            <stDim:h>49.332520</stDim:h>
            <stDim:unit>Pixels</stDim:unit>
         </xmpTPg:MaxPageSize>
         <xmpTPg:PlateNames>
            <rdf:Seq>
               <rdf:li>Cyan</rdf:li>
               <rdf:li>Magenta</rdf:li>
               <rdf:li>Yellow</rdf:li>
            </rdf:Seq>
         </xmpTPg:PlateNames>
         <xmpTPg:SwatchGroups>
            <rdf:Seq>
               <rdf:li rdf:parseType="Resource">
                  <xmpG:groupName>Default Swatch Group</xmpG:groupName>
                  <xmpG:groupType>0</xmpG:groupType>
               </rdf:li>
            </rdf:Seq>
         </xmpTPg:SwatchGroups>
      </rdf:Description>
      <rdf:Description rdf:about=""
            xmlns:pdf="http://ns.adobe.com/pdf/1.3/">
         <pdf:Producer>Adobe PDF library 10.01</pdf:Producer>
      </rdf:Description>
   </rdf:RDF>
</x:xmpmeta>
                                                                                                    
                                                                                                    
                                                                                                    
                                                                                                    
                                                                                                    
                                                                                                    
                                                                                                    
                                                                                                    
                                                                                                    
                                                                                                    
                                                                                                    
                                                                                                    
                                                                                                    
                                                                                                    
                                                                                                    
                                                                                                    
                                                                                                    
                                                                                                    
                                                                                                    
                                                                                                    
                           
<?xpacket end="w"?>
	</metadata>
<g>
	<path fill="#FFFFFF" d="M71.986,36.375V11.29h3.657v4.373h0.11c0.694-1.28,1.718-2.332,3.07-3.147
		c1.352-0.816,2.76-1.226,4.221-1.226c0.986,0,2.119,0.112,3.397,0.337v4.036c-0.803-0.288-1.754-0.432-2.851-0.432
		c-2.303,0-4.147,0.897-5.534,2.69c-1.39,1.795-2.083,4.229-2.083,7.305v11.149H71.986L71.986,36.375z"/>
</g>
<path fill="#FFFFFF" d="M22.602,11.29c1.681,0,3.27,0.321,4.769,0.963s2.809,1.524,3.928,2.644c1.119,1.12,2.009,2.429,2.668,3.928
	c0.659,1.499,0.988,3.105,0.988,4.817c0,1.714-0.329,3.319-0.988,4.817c-0.659,1.498-1.549,2.801-2.668,3.902
	c-1.119,1.104-2.429,1.977-3.928,2.618c-1.499,0.644-3.087,0.964-4.769,0.964c-1.712,0-3.317-0.32-4.816-0.964
	c-1.499-0.642-2.8-1.515-3.903-2.618c-1.104-1.104-1.976-2.404-2.619-3.902s-0.963-3.104-0.963-4.817
	c0-1.711,0.321-3.318,0.963-4.817c0.643-1.499,1.515-2.809,2.619-3.928c1.103-1.119,2.404-2.001,3.903-2.644
	C19.285,11.611,20.89,11.29,22.602,11.29z M22.609,32.463c1.216,0,2.371-0.231,3.465-0.698c1.095-0.466,2.038-1.095,2.828-1.886
	c0.791-0.789,1.418-1.723,1.885-2.797c0.465-1.072,0.699-2.22,0.699-3.436s-0.234-2.372-0.699-3.466
	c-0.467-1.094-1.095-2.037-1.885-2.828s-1.733-1.418-2.828-1.885c-1.094-0.464-2.249-0.699-3.465-0.699
	c-1.216,0-2.372,0.235-3.466,0.699c-1.095,0.467-2.047,1.095-2.858,1.885c-0.812,0.791-1.449,1.733-1.915,2.828
	c-0.467,1.094-0.699,2.25-0.699,3.466s0.232,2.361,0.699,3.436c0.466,1.074,1.104,2.008,1.915,2.797
	c0.811,0.791,1.763,1.42,2.858,1.886C20.237,32.231,21.393,32.463,22.609,32.463z"/>
<path fill="#FFFFFF" d="M86.931,5.591c0.104,0.992,1.122,1.998,2.026,2.919c0.058,0.061,0.097,0.097,0.097,0.097
	s0.448-0.937,0.957-1.759c0.51-0.823,0.594-2.124-0.558-2.536c0,0,0.654,0.469,0.037,1.473c-0.176,0.285-0.451,0.693-0.662,1.08
	c-0.426-0.486-0.76-0.965-0.803-1.363c-0.113-1.053,0.514-1.79,1.596-1.879s1.854,0.533,1.967,1.584
	c0.056,0.513-0.334,1.231-0.782,1.939c-0.033,0.059-0.086,0.141-0.16,0.251l0,0c-0.019,0.026-0.035,0.054-0.054,0.08
	C89.713,8.859,90.377,9.9,90.377,9.9l0,0c0.401-1.323,2.476-3.213,2.308-4.784c-0.179-1.674-1.576-2.587-3.166-2.455
	C87.93,2.792,86.75,3.916,86.931,5.591z"/>
<g>
	<polygon fill="#FFFFFF" points="41.774,30.194 48.386,32.51 52.761,30.211 	"/>
	<polygon fill="#FFFFFF" points="41.774,30.28 47.761,33.047 46.425,34.739 	"/>
</g>
<g>
	<path fill="#FFFFFF" d="M92.053,36.194h-4.251V11.29h4.251V36.194z"/>
</g>
<path fill="#FFFFFF" d="M35.825,44.547V23.919c-0.067-1.691,0.245-3.342,0.929-4.869c0.669-1.496,1.589-2.829,2.734-3.962
	c1.136-1.13,2.478-2.038,3.987-2.698c1.517-0.664,3.135-1,4.812-1c1.677,0,3.297,0.336,4.814,1c1.51,0.661,2.839,1.573,3.952,2.709
	c1.111,1.135,2.006,2.467,2.658,3.959c0.66,1.513,0.994,3.148,0.994,4.861c0,1.68-0.316,3.294-0.94,4.799
	c-0.624,1.499-1.519,2.858-2.661,4.04c-1.199,1.174-2.551,2.074-4.04,2.697c-1.494,0.629-3.101,0.947-4.776,0.947h-3.021
	l6.176-4.592l0.102-0.045c1.016-0.45,1.914-1.069,2.669-1.844c0.759-0.776,1.373-1.692,1.824-2.723
	c0.442-1.011,0.666-2.115,0.666-3.282c0-1.169-0.226-2.292-0.67-3.337c-0.451-1.054-1.071-1.99-1.843-2.78
	c-0.77-0.789-1.679-1.426-2.703-1.896c-1-0.455-2.092-0.686-3.246-0.686c-1.156,0-2.257,0.232-3.273,0.689
	c-1.033,0.466-1.938,1.1-2.69,1.885c-0.76,0.791-1.365,1.725-1.8,2.777c-0.433,1.048-0.652,2.174-0.652,3.347v24.743L35.825,44.547z
	"/>
<g>
	<polygon fill="#FFFFFF" points="100.295,30.194 106.909,32.51 111.284,30.211 	"/>
	<polygon fill="#FFFFFF" points="100.295,30.28 106.284,33.047 104.947,34.739 	"/>
</g>
<path fill="#FFFFFF" d="M93.346,44.547V23.919c-0.066-1.691,0.244-3.342,0.929-4.869c0.669-1.496,1.589-2.829,2.733-3.962
	c1.137-1.13,2.479-2.038,3.988-2.698c1.516-0.664,3.135-1,4.812-1s3.297,0.336,4.813,1c1.51,0.661,2.84,1.573,3.951,2.709
	c1.111,1.135,2.006,2.467,2.658,3.959c0.659,1.513,0.994,3.148,0.994,4.861c0,1.68-0.316,3.294-0.939,4.799
	c-0.623,1.499-1.52,2.858-2.662,4.04c-1.197,1.174-2.552,2.074-4.039,2.697c-1.494,0.629-3.103,0.947-4.776,0.947h-3.021
	l6.176-4.592l0.102-0.045c1.018-0.45,1.914-1.069,2.67-1.844c0.76-0.776,1.373-1.692,1.824-2.723
	c0.441-1.011,0.666-2.115,0.666-3.282c0-1.169-0.227-2.292-0.671-3.337c-0.45-1.054-1.071-1.99-1.843-2.78
	c-0.771-0.789-1.681-1.426-2.703-1.896c-1-0.455-2.092-0.686-3.246-0.686c-1.155,0-2.256,0.232-3.272,0.689
	c-1.032,0.466-1.938,1.1-2.69,1.885c-0.76,0.791-1.364,1.725-1.799,2.777c-0.434,1.048-0.652,2.174-0.652,3.347v24.743
	L93.346,44.547z"/>
<g>
	<path fill="#FFFFFF" d="M134.997,18.23c-2.425,0-4.389-1.657-4.389-3.702v-3.352c0-2.044,1.964-3.701,4.389-3.701h6.006
		c2.424,0,4.388,1.657,4.388,3.701v3.352c0,2.045-1.964,3.702-4.388,3.702H134.997z M134.997,15.938h6.006
		c0.924,0,1.67-0.631,1.67-1.409v-3.352c0-0.779-0.746-1.409-1.67-1.409h-6.006c-0.924,0-1.672,0.63-1.672,1.409v3.352
		C133.325,15.307,134.073,15.938,134.997,15.938z"/>
	<path fill="#FFFFFF" d="M124.522,13.436h26.047c2.752,0,4.982,1.88,4.982,4.2v13.791c0,2.321-2.23,4.202-4.982,4.202h-26.047
		c-2.751,0-4.98-1.881-4.98-4.202V17.636C119.542,15.315,121.771,13.436,124.522,13.436z"/>
	<path fill="#FFFFFF" d="M153.536,18.894c-2.248,0-4.074-1.539-4.074-3.438c0.055-0.707,0.183-1.489,0.813-2.021h0.294
		c2.752,0,4.982,1.881,4.982,4.201v0.765l-1.193,0.423L153.536,18.894z"/>
	<path fill="#FFFFFF" d="M150.018,35.629c-0.579-1.161-0.434-0.606-0.555-1.643c0-1.896,1.822-3.438,4.072-3.438
		c1.25,0.105,0.566-0.02,2.016,0.494v0.383c0,2.32-2.23,4.201-4.982,4.201h-0.551V35.629z"/>
</g>
<g>
	<path fill="#18A5B6" d="M127.299,29.055h-1.872v-1.871h1.872V29.055z"/>
	<path fill="#18A5B6" d="M136.209,20.019l1.367,1.368l-4.031,7.667h-1.387l-3.996-7.667l1.367-1.368l3.313,6.409L136.209,20.019z"/>
	<path fill="#18A5B6" d="M147.404,29.055h-1.872v-4.5c0-0.359-0.068-0.701-0.207-1.025c-0.138-0.324-0.326-0.603-0.566-0.837
		c-0.239-0.233-0.52-0.42-0.836-0.558c-0.318-0.138-0.657-0.207-1.019-0.207c-0.358,0-0.698,0.069-1.017,0.207
		c-0.318,0.138-0.598,0.324-0.838,0.558c-0.239,0.234-0.43,0.513-0.566,0.837c-0.137,0.324-0.207,0.666-0.207,1.025v4.5h-1.872v-4.5
		c-0.012-0.611,0.101-1.189,0.333-1.737c0.234-0.546,0.557-1.022,0.963-1.431c0.408-0.408,0.889-0.731,1.44-0.972
		c0.551-0.241,1.14-0.36,1.764-0.36s1.212,0.12,1.765,0.36c0.553,0.24,1.031,0.563,1.439,0.972c0.408,0.409,0.729,0.885,0.963,1.431
		c0.234,0.547,0.346,1.125,0.333,1.737V29.055L147.404,29.055z"/>
</g>
<g>
	<path fill="#FFFFFF" d="M70.631,36.167h-2.215c-1.821,0-3.376-0.646-4.667-1.936s-1.936-2.846-1.936-4.667V0.938h4.409V11.29h4.409
		v4.409h-4.409v13.866c0.057,0.373,0.279,0.882,0.667,1.527c0.401,0.443,0.91,0.666,1.527,0.666h2.215V36.167z"/>
</g>
<g>
	<path fill="#FFFFFF" d="M10.301,36.167H8.085c-1.821,0-3.376-0.646-4.667-1.936s-1.936-2.846-1.936-4.667V0.938h4.409V11.29H10.3
		v4.409H5.892v13.866c0.057,0.373,0.279,0.882,0.667,1.527c0.401,0.443,0.91,0.666,1.527,0.666h2.215V36.167z"/>
</g>
</svg>
